<svg xmlns="http://www.w3.org/2000/svg" viewBox="0 0 680 440" fill="none"><path d="M91 129c66-26 132-20 188 15v194c-56-35-122-41-188-15zM589 129c-66-26-132-20-188 15v194c56-35 122-41 188-15z" fill="#fff" stroke="#E0040C" stroke-opacity=".34" stroke-width="3"/><path d="M340 145v193" stroke="#E0040C" stroke-opacity=".5" stroke-width="3"/><path d="M130 177c40-12 79-10 112 5M130 215c40-12 79-10 112 5M438 182c32-15 71-17 112-5M438 220c32-15 71-17 112-5" stroke="#1F2937" stroke-opacity=".18" stroke-width="7" stroke-linecap="round"/><circle cx="340" cy="94" r="37" fill="#FEF2F2" stroke="#E0040C" stroke-opacity=".5" stroke-width="3"/><path d="M340 76v36M322 94h36" stroke="#E0040C" stroke-opacity=".7" stroke-width="4" stroke-linecap="round"/><path d="M340 131v-30" stroke="#E0040C" stroke-width="3" stroke-dasharray="5 7"/></svg>
