<svg xmlns="http://www.w3.org/2000/svg" viewBox="0 0 680 440" fill="none"><path d="M106 331c78-16 91-133 181-132 79 1 85 107 168 104 52-2 73-35 119-93" stroke="#E0040C" stroke-opacity=".58" stroke-width="5" stroke-linecap="round"/><path d="M117 315c71-13 89-118 169-118 74 0 81 99 166 98" stroke="#E0040C" stroke-opacity=".18" stroke-width="28" stroke-linecap="round"/><circle cx="108" cy="331" r="23" fill="#fff" stroke="#E0040C" stroke-opacity=".5" stroke-width="3"/><circle cx="287" cy="199" r="27" fill="#FEF2F2" stroke="#E0040C" stroke-opacity=".55" stroke-width="3"/><circle cx="455" cy="303" r="23" fill="#fff" stroke="#E0040C" stroke-opacity=".5" stroke-width="3"/><circle cx="574" cy="210" r="31" fill="#E0040C"/><circle cx="574" cy="210" r="10" fill="#fff"/><path d="M104 110h90M150 86v48M470 103h75M508 78v49" stroke="#1F2937" stroke-opacity=".17" stroke-width="5" stroke-linecap="round"/></svg>
