<svg xmlns="http://www.w3.org/2000/svg" viewBox="0 0 680 440" fill="none"><path d="M115 126H565M227 306H452M340 126V250" stroke="#E0040C" stroke-opacity=".3" stroke-width="4" stroke-linecap="round" stroke-dasharray="2 12"/><rect x="40" y="70" width="150" height="112" rx="22" fill="#FEF2F2" stroke="#E0040C" stroke-opacity="0.52" stroke-width="3"/><path d="M68 132h94M68 154h62" stroke="#1F2937" stroke-opacity=".17" stroke-width="8" stroke-linecap="round"/><circle cx="74" cy="102" r="13" fill="#E0040C" fill-opacity="0.85"/><rect x="265" y="70" width="150" height="112" rx="22" fill="#fff" stroke="#E0040C" stroke-opacity="0.24" stroke-width="3"/><path d="M293 132h70M293 154h50" stroke="#1F2937" stroke-opacity=".17" stroke-width="8" stroke-linecap="round"/><circle cx="299" cy="102" r="11" fill="#E0040C" fill-opacity="0.4"/><rect x="490" y="70" width="150" height="112" rx="22" fill="#fff" stroke="#E0040C" stroke-opacity="0.24" stroke-width="3"/><path d="M518 132h94M518 154h62" stroke="#1F2937" stroke-opacity=".17" stroke-width="8" stroke-linecap="round"/><circle cx="524" cy="102" r="11" fill="#E0040C" fill-opacity="0.4"/><rect x="152" y="250" width="150" height="112" rx="22" fill="#fff" stroke="#E0040C" stroke-opacity="0.24" stroke-width="3"/><path d="M180 312h70M180 334h50" stroke="#1F2937" stroke-opacity=".17" stroke-width="8" stroke-linecap="round"/><circle cx="186" cy="282" r="11" fill="#E0040C" fill-opacity="0.4"/><rect x="377" y="250" width="150" height="112" rx="22" fill="#fff" stroke="#E0040C" stroke-opacity="0.24" stroke-width="3"/><path d="M405 312h94M405 334h62" stroke="#1F2937" stroke-opacity=".17" stroke-width="8" stroke-linecap="round"/><circle cx="411" cy="282" r="11" fill="#E0040C" fill-opacity="0.4"/></svg>